<svg width="25" height="25" viewBox="0 0 25 25" fill="none" xmlns="http://www.w3.org/2000/svg">
<path d="M17.5072 14.5001C17.3072 14.4001 16.0072 13.8001 15.8072 13.7001C15.6072 13.6001 15.4072 13.6001 15.2072 13.8001C15.0072 14.0001 14.6072 14.6001 14.4072 14.8001C14.3072 15.0001 14.1072 15.0001 13.9072 14.9001C13.2072 14.6001 12.5072 14.2001 11.9072 13.7001C11.4072 13.2001 10.9072 12.6001 10.5072 12.0001C10.4072 11.8001 10.5072 11.6001 10.6072 11.5001C10.7072 11.4001 10.8072 11.2001 11.0072 11.1001C11.1072 11.0001 11.2072 10.8001 11.2072 10.7001C11.3072 10.6001 11.3072 10.4001 11.2072 10.3001C11.1072 10.2001 10.6072 9.0001 10.4072 8.5001C10.3072 7.8001 10.1072 7.8001 9.90723 7.8001C9.80723 7.8001 9.60723 7.8001 9.40723 7.8001C9.20723 7.8001 8.90723 8.0001 8.80723 8.1001C8.20723 8.7001 7.90723 9.4001 7.90723 10.2001C8.00723 11.1001 8.30723 12.0001 8.90723 12.8001C10.0072 14.4001 11.4072 15.7001 13.1072 16.5001C13.6072 16.7001 14.0072 16.9001 14.5072 17.0001C15.0072 17.2001 15.5072 17.2001 16.1072 17.1001C16.8072 17.0001 17.4072 16.5001 17.8072 15.9001C18.0072 15.5001 18.0072 15.1001 17.9072 14.7001C17.9072 14.7001 17.7072 14.6001 17.5072 14.5001ZM20.0072 5.4001C16.1072 1.5001 9.80723 1.5001 5.90723 5.4001C2.70723 8.6001 2.10723 13.5001 4.30723 17.4001L2.90723 22.5001L8.20723 21.1001C9.70723 21.9001 11.3072 22.3001 12.9072 22.3001C18.4072 22.3001 22.8072 17.9001 22.8072 12.4001C22.9072 9.8001 21.8072 7.3001 20.0072 5.4001ZM17.3072 19.4001C16.0072 20.2001 14.5072 20.7001 12.9072 20.7001C11.4072 20.7001 10.0072 20.3001 8.70723 19.6001L8.40723 19.4001L5.30723 20.2001L6.10723 17.2001L5.90723 16.9001C3.50723 12.9001 4.70723 7.9001 8.60723 5.4001C12.5072 2.9001 17.5072 4.2001 19.9072 8.0001C22.3072 11.9001 21.2072 17.0001 17.3072 19.4001Z" fill="#F9F9F9"/>
</svg>
